# Blender 4.1.1
# www.blender.org
mtllib Wood_BoatV1_Hull.mtl
o Wood_BoatV1
v -1.993413 0.200302 0.136336
v -1.993413 0.799529 0.459303
v -1.993413 0.200302 -0.219053
v -1.993413 0.799529 -0.539402
v 2.044407 0.799529 -0.040050
v 1.829324 0.209747 -0.041211
v -0.000000 0.200302 -0.306054
v -0.000000 0.799529 -0.783888
v -0.000000 0.200302 0.223336
v -0.000000 0.799529 0.703789
v -0.664471 0.200302 -0.290502
v -1.328942 0.200302 -0.259847
v -0.664471 0.799529 0.660085
v -1.328942 0.799529 0.573940
v -1.328942 0.799529 -0.654039
v -0.664471 0.799529 -0.740185
v -1.328942 0.200302 0.177130
v -0.664471 0.200302 0.207784
v 0.606405 0.799529 -0.767565
v 0.606405 0.200302 0.217528
v 0.606405 0.200302 -0.300245
v 0.606405 0.799529 0.687466
v 1.292944 0.799529 -0.551591
v 1.292944 0.200302 0.140673
v 1.292944 0.200302 -0.223391
v 1.292944 0.799529 0.471491
v 1.557645 0.799529 -0.420417
v 1.557645 0.200302 0.093995
v 1.557645 0.200302 -0.176712
v 1.557645 0.799529 0.340317
v 1.807848 0.799529 -0.245996
v 1.807848 0.200302 0.031927
v 1.807848 0.200302 -0.114645
v 1.807848 0.799529 0.165896
v 2.018191 0.622336 -0.040050
v 1.807848 0.622336 -0.245996
v 1.807848 0.622336 0.165896
v 1.557645 0.622336 -0.420417
v -1.925919 0.200302 -0.223197
v -1.925919 0.799529 0.470947
v -1.925919 0.799529 -0.551047
v -1.925919 0.200302 0.140480
v 1.455799 0.200302 -0.194672
v 1.455799 0.799529 0.390787
v 1.455799 0.799529 -0.470887
v 1.455799 0.200302 0.111955
v 1.557645 0.622336 0.340317
v 1.292944 0.622336 -0.551591
v 1.292944 0.622336 0.471491
v 0.606405 0.622336 -0.767565
v 0.606405 0.622336 0.687466
v -1.328942 0.622336 0.573940
v -0.664471 0.622336 0.660085
v -0.664471 0.622336 -0.740185
v -1.328942 0.622336 -0.654039
v -0.000000 0.622336 -0.783889
v -0.000000 0.622336 0.703789
v -1.993413 0.622336 -0.539402
v -1.993413 0.622336 0.459303
v 1.455799 0.622336 0.390787
v 1.455799 0.622336 -0.470887
v -1.925919 0.622336 0.470947
v -1.925919 0.622336 -0.551047
v -1.993413 0.420907 -0.471342
v -0.000000 0.420906 0.601978
v -0.000000 0.420907 -0.682422
v -1.328942 0.420907 -0.570315
v -0.664471 0.420907 -0.644690
v -0.664471 0.420907 0.564246
v -1.328942 0.420907 0.489872
v 0.606405 0.420906 0.587886
v 0.606405 0.420907 -0.668329
v 1.292944 0.420906 0.401422
v 1.292944 0.420906 -0.481865
v 1.557645 0.420906 0.288171
v 1.557645 0.420906 -0.368615
v 1.807848 0.420906 0.137584
v 1.807848 0.420906 -0.218028
v 1.992244 0.420906 -0.040222
v -1.925919 0.420907 -0.481396
v -1.925919 0.420907 0.400953
v 1.455799 0.420906 -0.412189
v 1.455799 0.420906 0.331745
v -1.993413 0.420907 0.390899
v -1.993413 0.255399 -0.343288
v -0.000000 0.255399 0.410273
v -0.000000 0.255399 -0.491484
v -1.328942 0.255399 -0.412776
v -0.664471 0.255399 -0.464993
v -0.664471 0.255399 0.383782
v -1.328942 0.255399 0.331565
v 0.606405 0.255399 0.400379
v 0.606405 0.255399 -0.481589
v 1.292944 0.255399 0.269465
v 1.292944 0.255399 -0.350676
v 1.557645 0.255399 0.189954
v 1.557645 0.255399 -0.271165
v 1.807848 0.255399 0.084229
v 1.807848 0.255399 -0.165440
v 1.920411 0.255399 -0.040606
v -1.925919 0.255399 -0.350346
v -1.925919 0.255399 0.269136
v 1.455799 0.255399 -0.301758
v 1.455799 0.255399 0.220546
v -1.993413 0.255399 0.262078
v -1.993413 0.216044 -0.295548
v -0.000000 0.216044 0.337898
v -0.000000 0.216044 -0.420121
v -1.328942 0.216044 -0.353959
v -0.664471 0.216044 -0.397853
v -0.664471 0.216044 0.315630
v -1.328942 0.216044 0.271736
v 0.606405 0.216044 0.329581
v 0.606405 0.216044 -0.411804
v 1.292944 0.216044 0.219535
v 1.292944 0.216044 -0.301758
v 1.557645 0.216044 0.152697
v 1.557645 0.216044 -0.234921
v 1.807848 0.216044 0.063825
v 1.807848 0.216044 -0.146048
v 1.873659 0.216044 -0.041112
v -1.925919 0.216044 -0.301481
v -1.925919 0.216044 0.219258
v 1.455799 0.216044 -0.260637
v 1.455799 0.216044 0.178413
v -1.993413 0.216044 0.213325
vn -1.0000 -0.0000 -0.0000
vn 0.6769 -0.0501 -0.7344
vn 0.4026 -0.9154 -0.0000
vn -0.0000 -1.0000 -0.0000
vn -0.1700 -0.0000 0.9854
vn 0.0269 -0.0000 0.9996
vn -0.0656 -0.0000 -0.9978
vn -0.1700 -0.0000 -0.9854
vn -0.1286 -0.0000 -0.9917
vn -0.0656 -0.0000 0.9978
vn -0.1286 -0.0000 0.9917
vn 0.3001 -0.0000 0.9539
vn 0.0269 -0.0000 -0.9996
vn 0.4440 -0.0000 0.8960
vn 0.3001 -0.0000 -0.9539
vn 0.4066 -0.2431 0.8807
vn 0.5719 -0.0000 0.8203
vn 0.4440 -0.0000 -0.8960
vn 0.6939 -0.0952 0.7138
vn 0.6769 -0.0501 0.7344
vn 0.6940 -0.0939 -0.7138
vn 0.5372 -0.1652 0.8271
vn 0.2609 -0.3734 -0.8902
vn -0.1096 -0.4053 0.9076
vn 0.5719 -0.0000 -0.8203
vn 0.2608 -0.3747 0.8897
vn 0.5373 -0.1638 -0.8273
vn -0.0549 -0.4398 0.8964
vn 0.4068 -0.2416 -0.8810
vn -0.1486 -0.3519 -0.9242
vn -0.1097 -0.4040 -0.9082
vn -0.0550 -0.4386 -0.8970
vn 0.0224 -0.4470 0.8942
vn 0.4025 -0.2794 0.8717
vn -0.1503 -0.3212 0.9350
vn 0.0224 -0.4458 -0.8948
vn 0.4027 -0.2780 -0.8721
vn -0.1485 -0.3532 0.9237
vn -0.1504 -0.3198 -0.9355
vn -0.0993 -0.6133 -0.7836
vn -0.0949 -0.6562 0.7486
vn 0.2821 -0.5656 -0.7749
vn 0.0130 -0.7520 -0.6591
vn -0.0991 -0.6156 0.7818
vn 0.2816 -0.5681 0.7733
vn 0.0130 -0.7533 0.6576
vn -0.0322 -0.7455 -0.6658
vn -0.0666 -0.7121 -0.6989
vn -0.0951 -0.6542 -0.7503
vn 0.2947 -0.5082 -0.8093
vn -0.0321 -0.7468 0.6642
vn 0.4228 -0.3741 -0.8254
vn 0.1641 -0.6850 0.7098
vn -0.0664 -0.7137 0.6973
vn 0.1644 -0.6833 -0.7114
vn 0.4222 -0.3774 0.8242
vn 0.6899 -0.2565 -0.6769
vn 0.6893 -0.2594 0.6764
vn 0.2941 -0.5110 0.8077
vn 0.1910 -0.6971 0.6911
vn 0.6677 -0.5343 0.5183
vn 0.6725 -0.5247 -0.5220
vn 0.2993 -0.5639 0.7697
vn 0.0965 -0.8295 -0.5501
vn -0.0379 -0.8512 0.5235
vn 0.0954 -0.8339 0.5437
vn 0.3027 -0.5501 -0.7783
vn -0.0179 -0.8723 0.4886
vn 0.1934 -0.6877 -0.6997
vn -0.0567 -0.8060 -0.5892
vn -0.0383 -0.8474 -0.5295
vn -0.0181 -0.8693 -0.4940
vn 0.0072 -0.8763 0.4817
vn 0.1768 -0.7481 0.6396
vn -0.0599 -0.7802 0.6226
vn 0.0073 -0.8734 -0.4870
vn 0.1790 -0.7407 -0.6475
vn -0.0560 -0.8112 0.5820
vn -0.0607 -0.7738 -0.6305
vn -0.0149 -0.9798 -0.1993
vn -0.0133 -0.9838 0.1786
vn 0.0457 -0.9760 -0.2129
vn 0.0016 -0.9904 -0.1382
vn -0.0148 -0.9801 0.1981
vn 0.0454 -0.9763 0.2115
vn 0.0016 -0.9905 0.1376
vn -0.0040 -0.9900 -0.1408
vn -0.0087 -0.9880 -0.1544
vn -0.0134 -0.9836 -0.1796
vn 0.0526 -0.9680 -0.2454
vn -0.0040 -0.9901 0.1402
vn 0.0995 -0.9388 -0.3298
vn 0.0221 -0.9864 0.1627
vn -0.0086 -0.9881 0.1537
vn 0.0223 -0.9863 -0.1635
vn 0.0985 -0.9400 0.3267
vn 0.3660 -0.9214 -0.1303
vn 0.3646 -0.9220 0.1298
vn 0.0522 -0.9685 0.2436
vt 0.773438 0.034370
vt 0.851562 0.035338
vt 0.726562 0.026625
s 0
usemtl PolyPack_Boats
f 84/1/1 59/1/1 58/1/1 64/1/1
f 2/2/1 4/2/1 58/2/1 59/2/1
f 36/2/2 31/2/2 5/2/2 35/2/2
f 33/2/3 6/2/3 32/2/3
f 12/3/4 17/3/4 42/3/4 39/3/4
f 62/2/5 40/2/5 2/2/5 59/2/5
f 51/2/6 22/2/6 10/2/6 57/2/6
f 54/2/7 16/2/7 8/2/7 56/2/7
f 63/2/8 41/2/8 15/2/8 55/2/8
f 43/3/4 29/3/4 28/3/4 46/3/4
f 7/3/4 9/3/4 18/3/4 11/3/4
f 55/2/9 15/2/9 16/2/9 54/2/9
f 57/2/10 10/2/10 13/2/10 53/2/10
f 53/2/11 13/2/11 14/2/11 52/2/11
f 3/3/4 39/3/4 42/3/4 1/3/4
f 49/2/12 26/2/12 22/2/12 51/2/12
f 56/2/13 8/2/13 19/2/13 50/2/13
f 12/3/4 11/3/4 18/3/4 17/3/4
f 60/2/14 44/2/14 26/2/14 49/2/14
f 50/2/15 19/2/15 23/2/15 48/2/15
f 75/1/16 47/1/16 60/1/16 83/1/16
f 37/2/17 34/2/17 30/2/17 47/2/17
f 61/2/18 45/2/18 27/2/18 38/2/18
f 79/1/19 35/1/19 37/1/19 77/1/19
f 35/2/20 5/2/20 34/2/20 37/2/20
f 33/3/4 32/3/4 28/3/4 29/3/4
f 7/3/4 21/3/4 20/3/4 9/3/4
f 84/2/1 64/2/1 85/2/1 105/2/1
f 78/1/21 36/1/21 35/1/21 79/1/21
f 77/1/22 37/1/22 47/1/22 75/1/22
f 72/1/23 50/1/23 48/1/23 74/1/23
f 126/3/1 106/3/1 3/3/1 1/3/1
f 69/1/24 53/1/24 52/1/24 70/1/24
f 38/2/25 27/2/25 31/2/25 36/2/25
f 58/2/8 4/2/8 41/2/8 63/2/8
f 73/1/26 49/1/26 51/1/26 71/1/26
f 25/3/4 24/3/4 20/3/4 21/3/4
f 52/2/5 14/2/5 40/2/5 62/2/5
f 48/2/18 23/2/18 45/2/18 61/2/18
f 76/1/27 38/1/27 36/1/27 78/1/27
f 85/3/1 106/3/1 126/3/1 105/3/1
f 65/1/28 57/1/28 53/1/28 69/1/28
f 82/1/29 61/1/29 38/1/29 76/1/29
f 80/1/30 63/1/30 55/1/30 67/1/30
f 67/1/31 55/1/31 54/1/31 68/1/31
f 68/1/32 54/1/32 56/1/32 66/1/32
f 71/1/33 51/1/33 57/1/33 65/1/33
f 83/1/34 60/1/34 49/1/34 73/1/34
f 81/1/35 62/1/35 59/1/35 84/1/35
f 66/1/36 56/1/36 50/1/36 72/1/36
f 74/1/37 48/1/37 61/1/37 82/1/37
f 70/1/38 52/1/38 62/1/38 81/1/38
f 64/1/39 58/1/39 63/1/39 80/1/39
f 47/2/14 30/2/14 44/2/14 60/2/14
f 85/2/40 64/2/40 80/2/40 101/2/40
f 91/2/41 70/2/41 81/2/41 102/2/41
f 95/2/42 74/2/42 82/2/42 103/2/42
f 87/2/43 66/2/43 72/2/43 93/2/43
f 102/2/44 81/2/44 84/2/44 105/2/44
f 104/2/45 83/2/45 73/2/45 94/2/45
f 92/2/46 71/2/46 65/2/46 86/2/46
f 89/2/47 68/2/47 66/2/47 87/2/47
f 88/2/48 67/2/48 68/2/48 89/2/48
f 101/2/49 80/2/49 67/2/49 88/2/49
f 103/2/50 82/2/50 76/2/50 97/2/50
f 86/2/51 65/2/51 69/2/51 90/2/51
f 97/2/52 76/2/52 78/2/52 99/2/52
f 94/2/53 73/2/53 71/2/53 92/2/53
f 90/2/54 69/2/54 70/2/54 91/2/54
f 93/2/55 72/2/55 74/2/55 95/2/55
f 98/2/56 77/2/56 75/2/56 96/2/56
f 99/2/57 78/2/57 79/2/57 100/2/57
f 100/2/58 79/2/58 77/2/58 98/2/58
f 96/2/59 75/2/59 83/2/59 104/2/59
f 117/3/60 96/3/60 104/3/60 125/3/60
f 121/3/61 100/3/61 98/3/61 119/3/61
f 120/3/62 99/3/62 100/3/62 121/3/62
f 119/3/63 98/3/63 96/3/63 117/3/63
f 114/3/64 93/3/64 95/3/64 116/3/64
f 111/3/65 90/3/65 91/3/65 112/3/65
f 115/3/66 94/3/66 92/3/66 113/3/66
f 118/3/67 97/3/67 99/3/67 120/3/67
f 107/3/68 86/3/68 90/3/68 111/3/68
f 124/3/69 103/3/69 97/3/69 118/3/69
f 122/3/70 101/3/70 88/3/70 109/3/70
f 109/3/71 88/3/71 89/3/71 110/3/71
f 110/3/72 89/3/72 87/3/72 108/3/72
f 113/3/73 92/3/73 86/3/73 107/3/73
f 125/3/74 104/3/74 94/3/74 115/3/74
f 123/3/75 102/3/75 105/3/75 126/3/75
f 108/3/76 87/3/76 93/3/76 114/3/76
f 116/3/77 95/3/77 103/3/77 124/3/77
f 112/3/78 91/3/78 102/3/78 123/3/78
f 106/3/79 85/3/79 101/3/79 122/3/79
f 3/3/80 106/3/80 122/3/80 39/3/80
f 17/3/81 112/3/81 123/3/81 42/3/81
f 25/3/82 116/3/82 124/3/82 43/3/82
f 7/3/83 108/3/83 114/3/83 21/3/83
f 42/3/84 123/3/84 126/3/84 1/3/84
f 46/3/85 125/3/85 115/3/85 24/3/85
f 20/3/86 113/3/86 107/3/86 9/3/86
f 11/3/87 110/3/87 108/3/87 7/3/87
f 12/3/88 109/3/88 110/3/88 11/3/88
f 39/3/89 122/3/89 109/3/89 12/3/89
f 43/3/90 124/3/90 118/3/90 29/3/90
f 9/3/91 107/3/91 111/3/91 18/3/91
f 29/3/92 118/3/92 120/3/92 33/3/92
f 24/3/93 115/3/93 113/3/93 20/3/93
f 18/3/94 111/3/94 112/3/94 17/3/94
f 21/3/95 114/3/95 116/3/95 25/3/95
f 32/3/96 119/3/96 117/3/96 28/3/96
f 33/3/97 120/3/97 121/3/97 6/3/97
f 6/3/98 121/3/98 119/3/98 32/3/98
f 28/3/99 117/3/99 125/3/99 46/3/99
f 43/3/4 46/3/4 24/3/4 25/3/4
